<?xml version="1.0" encoding="utf-8"?>
<!-- Generator: Adobe Illustrator 21.0.0, SVG Export Plug-In . SVG Version: 6.00 Build 0)  -->
<svg version="1.1" id="Layer_1" xmlns="http://www.w3.org/2000/svg" xmlns:xlink="http://www.w3.org/1999/xlink" x="0px" y="0px"
	 viewBox="0 0 576.1 158.4" style="enable-background:new 0 0 576.1 158.4;" xml:space="preserve">
<style type="text/css">
	.st0{fill-rule:evenodd;clip-rule:evenodd;fill:#231B55;}
	.st1{fill-rule:evenodd;clip-rule:evenodd;fill:#ED0973;}
	.st2{fill-rule:evenodd;clip-rule:evenodd;fill:#AE186A;}
	.st3{fill-rule:evenodd;clip-rule:evenodd;fill:#751A5A;}
	.st4{fill-rule:evenodd;clip-rule:evenodd;fill:#4E1C57;}
</style>
<g>
	<path class="st0" d="M194.8,106.4h57.3l2-14.4c0.3-2.3-1.2-4-3.5-4.1h-29.2c-2.1,0-3.7-1.9-3.4-3.9l9.2-65.1l0,0c0-0.1,0-0.1,0-0.2
		c0-1.9-1.5-3.4-3.4-3.4l0,0h-16.2L194.8,106.4L194.8,106.4z M353,15.2h-17.1c-1.7,0-3.2,1.1-3.5,3L325,70.5
		c-0.8,5.6-3.2,10.3-7.1,14c-4,3.8-8.6,5.7-13.8,5.7c-4.8,0-8.7-1.5-11.6-4.6c-2.9-3-4.4-7-4.4-11.9c0-1,0.1-2.1,0.3-3.2l7.3-51.3
		c0.3-2.4-1.6-4-3.4-4h-16.1l-8,56c-0.3,2.3-0.4,4.6-0.4,6.8c0,9.3,2.9,16.7,8.6,22.3c5.8,5.6,14.1,8.4,25.1,8.4
		c12.2,0,22.1-3.5,29.8-10.4c7.6-6.9,12.2-16,13.8-27.1L353,15.2L353,15.2z M444.9,26.3c-2.9-4.6-7-8-12.3-10.2
		c-5.3-2.1-10.8-3.2-16.6-3.2c-7.1,0-13.8,1.1-20.2,3.3c-6.3,2.2-12,5.5-17,9.7c-5,4.2-9.1,9.3-12.4,15.2
		c-3.2,5.9-5.3,12.5-6.4,19.7c-0.4,2.7-0.6,5.4-0.6,8c0,6.1,1,11.6,3.1,16.6c2.1,4.9,5,9.1,8.8,12.6c3.8,3.5,8.4,6.1,13.7,8
		c5.3,1.8,11.1,2.8,17.6,2.8c6.5,0,12.9-1.3,19.2-4c6.3-2.7,11.6-6.6,16-11.9l-12.5-10.4c-0.9-0.8-3-1.4-4.6,0.2
		c-2,2-4.3,3.7-6.9,4.9c-3.5,1.7-7.2,2.6-11.1,2.6c-6.5,0-11.8-2.3-15.9-6.8c-4.1-4.5-6.1-10.3-6.1-17.5c0-1.6,0.1-3.3,0.4-5.2
		c0.6-4.2,1.8-8.1,3.6-11.7c1.8-3.6,4.1-6.7,6.8-9.3c2.7-2.7,5.8-4.7,9.3-6.2c3.4-1.5,7-2.2,10.8-2.2c6.1,0,10.9,1.7,14.4,5.2
		c0.6,0.6,2.5,1.7,4.5,0.3L444.9,26.3L444.9,26.3z M446.6,106.4h17.1c1.7-0.1,3.1-1.2,3.4-3L479,19.1c0.3-1.9-1.1-3.9-3.4-3.9h-16.1
		L446.6,106.4L446.6,106.4z M485,106.4h32.8c6.9,0,13.5-1,20-3c6.4-2,12.3-4.9,17.6-8.8c5.3-3.9,9.7-8.6,13.3-14.3
		c3.5-5.7,5.8-12.1,6.8-19.3c0.3-2.9,0.5-5.7,0.5-8.4c0-6.5-1.2-12.2-3.6-17c-2.4-4.8-5.8-8.7-10.2-11.7c-4.4-3-9.5-5.2-15.3-6.6
		c-5.8-1.4-12.1-2.1-19-2.1h-30.1L485,106.4L485,106.4z M518.2,33.7h8.9c8.2,0,15,1.9,20.2,5.6c5.2,3.7,7.8,9.2,7.8,16.4
		c0,1.4-0.1,2.8-0.3,4.3c-0.8,5.1-2.2,9.4-4.3,12.9c-2.1,3.6-4.8,6.4-8,8.6c-3.2,2.2-6.9,3.8-10.9,4.8c-4.1,1-8.6,1.5-13.5,1.5h-6.5
		c-2.1,0-3.7-1.8-3.4-4l6.6-47.2C515.1,35.3,516.3,33.8,518.2,33.7z"/>
	<path class="st0" d="M106.4,1.4c0.5,0.4,1,0.9,1.4,1.4l47.9,47.9c11.1,11.1,13.2,27.9,6.3,41.2c-1.1,2-3.1,3.3-5.4,3.3h-66
		c-3.8,0-6.5-3.3-6-7c0.2-1.4,0.4-2.8,0.6-4.2c0.1-0.5,0.1-0.9,0.2-1.4c0.1-0.5,0.1-0.9,0.2-1.4c0.1-0.5,0.1-0.9,0.2-1.4
		c0.1-0.9,0.3-1.9,0.4-2.8c0.1-0.5,0.1-0.9,0.2-1.4c0.1-0.4,0.1-0.8,0.2-1.3c1.1-7.9,2.2-15.8,3.4-23.7c0.7-4.7,1.3-9.4,2-14
		c0.3-1.9,0.5-3.7,0.8-5.6c0.6-4.2,1.2-8.4,1.8-12.6c0.2-1.4,0.4-2.8,0.6-4.1c0.3-1.8,0.5-3.7,0.8-5.5c0.2-1.2,0.3-2.3,0.5-3.5
		c0.5-3,3.1-5.1,6-5.1C103.9,0,105.3,0.5,106.4,1.4z"/>
	<path class="st1" d="M28.8,118.8l-18.5-18.5c-13.7-13.7-13.7-36,0-49.7l27.5-27.5L28.8,118.8z"/>
	<path class="st2" d="M21.9,112c-5.8-14-7.9-29.9-5.1-46.1c1.8-10.3,4.4-20.2,7.9-29.7l24.5-24.5c1.1-1,2.6-1.5,4-1.5
		c3.4,0,6.1,2.7,6.1,6.1c0,0.3,0,0.6-0.1,0.9l-1.7,11.7L42.3,66.5L41.4,116l2.6,8.8l-0.4,3h5.3l21,12.9l33.4,11.3
		c-13.7,9.7-32.9,8.4-45.2-3.8L21.9,112z"/>
	<path class="st3" d="M97.2,155.5c-14.1-5-27.6-10.8-40.1-17.3c-4-2.9-7.6-6.4-10.8-10.4l67.2,0c3.4,0,6.1,2.8,6.1,6.1
		c0,1.6-0.6,3.1-1.7,4.2l-10,10C104.7,151.3,101,153.8,97.2,155.5L97.2,155.5z M44,124.8C35.1,112,30.8,95.4,33.7,78.3
		c4-24.1,10.8-47.1,19.4-68.1l0.1,0c3.4,0,6.1,2.7,6.1,6.1c0,0.3,0,0.6-0.1,0.9c-0.1,0.9-0.3,1.8-0.4,2.7c-0.5,3.3-0.9,6.5-1.4,9.8
		c-0.2,1.4-0.4,2.8-0.6,4.2c-0.3,1.9-0.5,3.7-0.8,5.6c-0.3,2.3-0.7,4.7-1,7c-0.1,0.5-0.1,0.9-0.2,1.4c-0.3,2.3-0.7,4.7-1,7
		c-0.1,0.9-0.3,1.9-0.4,2.8c-0.1,0.5-0.1,0.9-0.2,1.4c-0.1,0.9-0.3,1.9-0.4,2.8c-0.1,0.9-0.3,1.9-0.4,2.8c-0.2,1.4-0.4,2.8-0.6,4.2
		c-0.1,0.4-0.1,0.8-0.2,1.3c-0.1,0.9-0.3,1.9-0.4,2.8c-0.1,0.5-0.1,0.9-0.2,1.4c-0.1,0.5-0.1,0.9-0.2,1.4c-0.1,0.5-0.1,0.9-0.2,1.4
		c-0.7,4.7-1.3,9.4-2,14c-0.1,0.5-0.1,0.9-0.2,1.4c-0.1,0.9-0.3,1.9-0.4,2.8c-0.1,0.4-0.1,0.9-0.2,1.3c-0.1,0.4-0.1,0.7-0.2,1.1
		c-0.3,1.9-0.5,3.7-0.8,5.6c-0.1,0.5-0.1,0.9-0.2,1.4c-0.1,0.9-0.3,1.9-0.4,2.8c-0.3,2.3-0.7,4.7-1,7C45,118.1,44.5,121.5,44,124.8z
		"/>
	<path class="st4" d="M106.9,149.1c-10.2-2.7-20.2-5.5-30.1-8.5c-6.5-2.8-12.2-7.2-16.6-12.8l53.2,0c3.4,0,6.1,2.8,6.1,6.1
		c0,1.6-0.6,3.1-1.7,4.2l-10,10C107.5,148.5,107.2,148.8,106.9,149.1z"/>
	<path class="st0" d="M110.9,145.1l-14.2-2.2c-10-1.5-18.4-7.3-23.7-15.1l40.5,0c3.4,0,6.1,2.8,6.1,6.1c0,1.6-0.6,3.1-1.7,4.2
		L110.9,145.1z"/>
</g>
</svg>
